<?xml version="1.0"?>
<svg xmlns="http://www.w3.org/2000/svg" id="Outline" viewBox="0 0 512 512" width="512" height="512"><path d="M485.483,413.818l-13.564-94.949a7.976,7.976,0,0,0-.764-2.447L456,286.112V240a8,8,0,0,0-8-8H338.249a72.31,72.31,0,0,0,2.331-51.56L320,118.7V40a8,8,0,0,0-5.47-7.589l-48-16a7.986,7.986,0,0,0-4.826-.065l0-.009L190.9,37.578a23.96,23.96,0,0,1-13.8,0L106.3,16.337l0,.009a7.986,7.986,0,0,0-4.826.065l-48,16A8,8,0,0,0,48,40v78.7L27.42,180.441A71.749,71.749,0,0,0,39.509,248.2l3.232,4.03a24.107,24.107,0,0,1,5.259,15V296a8,8,0,0,0,8,8H175.056l-6.211,12.422a7.976,7.976,0,0,0-.764,2.447l-13.564,94.949A72,72,0,0,0,225.792,496H288a8,8,0,0,0,6.247-3L320,460.806,345.753,493A8,8,0,0,0,352,496h62.208a72,72,0,0,0,71.275-82.182ZM440,280H424V248h16Zm-240,0V248h16v32Zm32-32h16v32H232Zm32,0h16v32H264Zm32,0h16v32H296Zm32,0h16v32H328Zm32,0h16v32H360Zm32,0h16v32H392ZM184,54.6A40,40,0,0,0,195.5,52.9L256,34.752V58.234l-20.646,6.885A39.932,39.932,0,0,0,208,103.06V112H160v-8.94a39.929,39.929,0,0,0-27.349-37.939L112,58.234V34.752L172.5,52.9A40.006,40.006,0,0,0,184,54.6ZM256,75.1V88a24.027,24.027,0,0,1-24,24h-8v-8.94A23.953,23.953,0,0,1,240.411,80.3Zm-144,0,15.594,5.2A23.951,23.951,0,0,1,144,103.06V112h-8a24.027,24.027,0,0,1-24-24ZM64,288V272h52.62a71.8,71.8,0,0,0,39.94-12.09l7.88-5.25a8,8,0,1,0-8.88-13.32l-7.87,5.25A55.8,55.8,0,0,1,116.62,256H62.378a40.145,40.145,0,0,0-7.147-13.775L52,238.192A55.8,55.8,0,0,1,42.6,185.5l20.99-62.97A8,8,0,0,0,64,120V45.766L96,35.1V88a40.045,40.045,0,0,0,40,40h96a40.045,40.045,0,0,0,40-40V35.1l32,10.666V120a8,8,0,0,0,.411,2.53L325.4,185.5a56.217,56.217,0,0,1-5.117,46.5H192a8,8,0,0,0-8,8v46.112L183.056,288ZM456.513,460.691A55.97,55.97,0,0,1,414.208,480H355.845l-29.6-37a8,8,0,0,0-12.494,0l-29.6,37H225.792a56,56,0,0,1-55.437-63.919l13.381-93.664L196.944,296H443.056l13.208,26.417,13.381,93.664A55.976,55.976,0,0,1,456.513,460.691Z"/></svg>
