<svg id="Capa_1" enable-background="new 0 0 512 512" height="512" viewBox="0 0 512 512" width="512" xmlns="http://www.w3.org/2000/svg"><g><g><path d="m211.202 221.726c-1.39-3.374-4.644-5.553-8.291-5.553-.003 0-.007 0-.01 0-3.652.004-6.905 2.19-8.289 5.57-.022.057-.046.114-.067.172l-24.277 63.743c-1.475 3.87.469 8.205 4.34 9.678 3.865 1.475 8.204-.469 9.678-4.34l4.206-11.044h28.653l4.16 11.024c1.133 3.003 3.988 4.854 7.018 4.854.88 0 1.775-.156 2.648-.485 3.875-1.462 5.831-5.789 4.368-9.666l-24.057-63.745c-.025-.071-.052-.14-.08-.208zm-16.996 43.225 8.678-22.787 8.6 22.787z"/><path d="m258.894 216.173c-4.143 0-7.5 3.358-7.5 7.5v64.599c0 4.143 3.358 7.5 7.5 7.5h22.64c4.143 0 7.5-3.358 7.5-7.5s-3.358-7.5-7.5-7.5h-15.139v-57.099c-.001-4.143-3.359-7.5-7.501-7.5z"/><path d="m312.083 216.173c-4.143 0-7.5 3.358-7.5 7.5v64.599c0 4.143 3.358 7.5 7.5 7.5h22.64c4.143 0 7.5-3.358 7.5-7.5s-3.358-7.5-7.5-7.5h-15.139v-57.099c-.001-4.143-3.358-7.5-7.501-7.5z"/><path d="m351.635 174.751c2.99-2.866 3.092-7.615.226-10.605-25.285-26.382-59.329-40.912-95.86-40.912-73.208 0-132.767 59.559-132.767 132.767s59.558 132.766 132.766 132.766 132.767-59.559 132.767-132.767c0-21.532-5.276-42.92-15.256-61.851-1.932-3.664-6.468-5.069-10.133-3.137-3.664 1.933-5.069 6.469-3.137 10.133 8.848 16.782 13.525 35.75 13.525 54.854 0 64.936-52.83 117.766-117.766 117.766s-117.766-52.829-117.766-117.765 52.83-117.766 117.766-117.766c32.403 0 62.601 12.888 85.03 36.291 2.867 2.991 7.616 3.091 10.605.226z"/><path d="m93.988 255.914c-2.534-4.573-7.358-7.414-12.587-7.414h-9.69c3.952-98.234 85.103-176.939 184.289-176.939 46.435 0 90.834 17.385 125.014 48.949 6.143 5.679 15.607 5.474 21.547-.463l11.501-11.501c3.017-3.018 4.635-7.031 4.556-11.3-.078-4.217-1.896-8.281-4.988-11.152-42.977-39.895-98.958-61.866-157.63-61.866-52.612 0-104.134 18.118-145.076 51.015-3.229 2.595-3.743 7.316-1.148 10.545 2.594 3.229 7.314 3.74 10.545 1.148 38.842-31.21 85.758-47.707 135.679-47.707 54.875 0 107.231 20.548 147.424 57.858.048.044.19.177.195.436.005.246-.123.374-.165.415l-11.501 11.501c-.211.213-.557.238-.759.054-36.962-34.134-84.976-52.933-135.194-52.933-109.971 0-199.44 89.469-199.44 199.44 0 4.143 3.358 7.5 7.5 7.5h16.236l-32.402 51.854-32.402-51.854h16.237c4.143 0 7.5-3.358 7.5-7.5 0-54.109 20.047-105.924 56.447-145.898 2.789-3.063 2.568-7.807-.495-10.595-3.063-2.79-7.807-2.568-10.595.495-37.238 40.894-58.47 93.369-60.237 148.498h-9.96c-5.229 0-10.051 2.841-12.586 7.414-2.534 4.572-2.387 10.169.384 14.601l33.503 53.614c2.648 4.236 7.21 6.764 12.205 6.764s9.558-2.528 12.207-6.765l33.501-53.611c2.771-4.433 2.918-10.029.385-14.603z"/><path d="m509.814 241.485-33.503-53.614c-2.648-4.236-7.21-6.764-12.205-6.764s-9.558 2.528-12.207 6.765l-33.501 53.611c-2.773 4.434-2.92 10.03-.387 14.603 2.534 4.573 7.358 7.414 12.587 7.414h9.691c-1.436 35.919-13.175 70.185-34.172 99.53-2.41 3.369-1.633 8.054 1.735 10.464 3.372 2.413 8.056 1.632 10.464-1.735 24.285-33.943 37.122-73.972 37.122-115.76 0-4.143-3.358-7.5-7.5-7.5h-16.236l32.402-51.854 32.403 51.854h-16.237c-4.143 0-7.5 3.358-7.5 7.5 0 119.528-97.243 216.771-216.771 216.771-54.875 0-107.231-20.548-147.424-57.858-.048-.044-.19-.177-.195-.436-.005-.246.123-.374.165-.415l11.501-11.501c.212-.213.558-.237.759-.054 36.963 34.135 84.977 52.934 135.195 52.934 51.969 0 101.2-19.953 138.624-56.184 2.976-2.881 3.053-7.63.172-10.606-2.883-2.976-7.63-3.053-10.606-.172-34.61 33.508-80.136 51.961-128.19 51.961-46.435 0-90.834-17.385-125.014-48.949-6.144-5.679-15.608-5.475-21.547.463l-11.501 11.501c-3.017 3.018-4.635 7.031-4.556 11.3.078 4.217 1.896 8.281 4.988 11.152 42.977 39.895 98.958 61.865 157.63 61.865 61.906 0 120.108-24.11 163.885-67.886 42.006-42.006 65.903-97.289 67.768-156.385h9.959c5.229 0 10.051-2.841 12.586-7.414 2.534-4.573 2.386-10.169-.384-14.601z"/></g></g></svg>