<svg id="Capa_1" enable-background="new 0 0 512 512" height="512" viewBox="0 0 512 512" width="512" xmlns="http://www.w3.org/2000/svg"><g><g><path d="m94.154 84.231 8.509 23.926c.364 1.024 1.086 1.836 1.996 2.246l21.258 9.577c3.003 1.353 3.003 6.138 0 7.491l-21.258 9.577c-.91.41-1.631 1.222-1.996 2.246l-8.509 23.926c-1.202 3.38-5.453 3.38-6.656 0l-8.509-23.926c-.364-1.024-1.085-1.836-1.996-2.246l-21.258-9.577c-3.003-1.353-3.003-6.138 0-7.491l21.258-9.577c.91-.41 1.632-1.222 1.996-2.246l8.509-23.926c1.202-3.38 5.454-3.38 6.656 0z"/><path d="m380.385 1.881 6.312 17.748c.27.76.805 1.362 1.48 1.666l15.769 7.104c2.228 1.004 2.228 4.553 0 5.557l-15.769 7.104c-.675.304-1.21.906-1.48 1.666l-6.312 17.748c-.892 2.507-4.045 2.507-4.937 0l-6.312-17.748c-.27-.76-.805-1.362-1.48-1.666l-15.769-7.104c-2.228-1.004-2.228-4.553 0-5.557l15.769-7.104c.675-.304 1.21-.906 1.48-1.666l6.312-17.748c.892-2.508 4.045-2.508 4.937 0z"/><ellipse cx="439.937" cy="154.508" rx="18.58" ry="18.58" transform="matrix(.383 -.924 .924 .383 128.834 501.829)"/><path d="m117.549 35.503c0 4.427-3.588 8.015-8.015 8.015s-8.015-3.589-8.015-8.015c0-4.427 3.588-8.015 8.015-8.015s8.015 3.589 8.015 8.015z"/></g><g><path d="m309.854 170.582 28.524-53.57c5.669-10.648 4.581-23.705-2.774-33.267l-27.835-36.185c-5.793-7.53-14.922-12.025-24.422-12.025h-63.882c-9.5 0-18.629 4.495-24.421 12.025l-27.835 36.185c-7.355 9.561-8.444 22.619-2.774 33.266l28.639 53.788c-68.076 24.209-116.954 89.274-116.954 165.551 0 96.854 78.797 175.65 175.65 175.65 96.854 0 175.65-78.796 175.65-175.65.001-76.506-49.171-141.733-117.566-165.768zm-54.244-114.329 19.73 39.177h-47.868l19.73-39.177zm18.831 51.609-18.136 52.896c-1.507-.038-3.018-.058-4.534-.058-1.758 0-3.509.034-5.255.085l-18.145-52.924h46.07zm-5.27 53.699 18.412-53.7h32.196l-29.733 55.842c-.199.373-.425.724-.664 1.064-6.608-1.447-13.351-2.528-20.211-3.206zm22.176-101.368 27.107 35.238h-29.196l-19.73-39.177h13.819c3.112-.001 6.103 1.472 8 3.939zm-79.882 0c1.897-2.467 4.888-3.939 8-3.939h13.819l-19.73 39.177h-29.196zm1.301 103.51-29.732-55.842h32.196l18.434 53.767c-6.838.703-13.557 1.81-20.142 3.278-.277-.379-.531-.78-.756-1.203zm39.005 327.579c-85.43 0-154.933-69.503-154.933-154.932s69.502-154.932 154.933-154.932c85.43 0 154.932 69.503 154.932 154.932s-69.502 154.932-154.932 154.932z"/><path d="m251.771 209.156c-70.135 0-127.194 57.059-127.194 127.194s57.059 127.194 127.194 127.194 127.194-57.059 127.194-127.194-57.059-127.194-127.194-127.194zm0 233.67c-58.712 0-106.477-47.765-106.477-106.476 0-58.712 47.765-106.477 106.477-106.477 58.711 0 106.476 47.765 106.476 106.477 0 58.711-47.765 106.476-106.476 106.476z"/></g></g></svg>